<?xml version="1.0" encoding="UTF-8" standalone="no"?>
<svg
   xmlns:dc="http://purl.org/dc/elements/1.1/"
   xmlns:cc="http://creativecommons.org/ns#"
   xmlns:rdf="http://www.w3.org/1999/02/22-rdf-syntax-ns#"
   xmlns:svg="http://www.w3.org/2000/svg"
   xmlns="http://www.w3.org/2000/svg"
   xmlns:sodipodi="http://sodipodi.sourceforge.net/DTD/sodipodi-0.dtd"
   xmlns:inkscape="http://www.inkscape.org/namespaces/inkscape"
   version="1.1"
   x="0px"
   y="0px"
   viewBox="0 0 48 60"
   enable-background="new 0 0 48 48"
   xml:space="preserve"
   id="svg608"
   sodipodi:docname="polygon.svg"
   inkscape:version="0.92.4 (fd57863, 2020-04-02)"><metadata
     id="metadata614"><rdf:RDF><cc:Work
         rdf:about=""><dc:format>image/svg+xml</dc:format><dc:type
           rdf:resource="http://purl.org/dc/dcmitype/StillImage" /></cc:Work></rdf:RDF></metadata><defs
     id="defs612" /><sodipodi:namedview
     pagecolor="#ffffff"
     bordercolor="#666666"
     borderopacity="1"
     objecttolerance="10"
     gridtolerance="10"
     guidetolerance="10"
     inkscape:pageopacity="0"
     inkscape:pageshadow="2"
     inkscape:window-width="1920"
     inkscape:window-height="1080"
     id="namedview610"
     showgrid="false"
     inkscape:zoom="4.9438549"
     inkscape:cx="-1.3446159"
     inkscape:cy="39.440526"
     inkscape:window-x="0"
     inkscape:window-y="0"
     inkscape:window-maximized="1"
     inkscape:current-layer="svg608" /><path
     d="M24.001,23.758c-1.229,0-2.229,1-2.229,2.228c0,1.229,1,2.229,2.229,2.229s2.229-1,2.229-2.229  C26.229,24.758,25.229,23.758,24.001,23.758z M24.001,27.213c-0.678,0-1.229-0.552-1.229-1.228c0-0.678,0.551-1.229,1.229-1.229  s1.229,0.551,1.229,1.229C25.229,26.661,24.678,27.213,24.001,27.213z"
     id="path600" /><path
     d="M43.772,17.333c-0.558,0-1.063,0.213-1.453,0.554L26.051,6.067c0.113-0.268,0.179-0.563,0.179-0.872  c0-1.227-1-2.227-2.229-2.227s-2.229,1-2.229,2.228c0,0.309,0.064,0.604,0.178,0.872L5.682,17.887  c-0.391-0.34-0.896-0.554-1.454-0.554c-1.229,0-2.228,1-2.228,2.228c0,1.228,1,2.228,2.228,2.228c0.065,0,0.127-0.014,0.191-0.02  l6.217,19.135c-0.646,0.391-1.084,1.092-1.084,1.901c0,1.228,1,2.228,2.228,2.228c1.056,0,1.938-0.739,2.166-1.728h20.108  c0.227,0.987,1.109,1.728,2.166,1.728c1.229,0,2.227-1,2.227-2.228c0-0.81-0.438-1.512-1.084-1.901L43.58,21.77  c0.063,0.006,0.127,0.02,0.19,0.02C45,21.79,46,20.791,46,19.562C46,18.333,45.001,17.333,43.772,17.333z M24.001,3.968  c0.678,0,1.229,0.551,1.229,1.228c0,0.677-0.551,1.228-1.229,1.228s-1.229-0.551-1.229-1.228  C22.772,4.519,23.323,3.968,24.001,3.968z M3.001,19.561c0-0.677,0.551-1.228,1.228-1.228c0.677,0,1.228,0.551,1.228,1.228  c0,0.677-0.551,1.228-1.228,1.228C3.551,20.789,3.001,20.238,3.001,19.561z M11.781,44.032c-0.677,0-1.228-0.551-1.228-1.229  c0-0.677,0.551-1.229,1.228-1.229c0.677,0,1.228,0.552,1.228,1.229C13.008,43.481,12.458,44.032,11.781,44.032z M36.221,44.032  c-0.678,0-1.229-0.551-1.229-1.229c0-0.677,0.552-1.229,1.229-1.229c0.677,0,1.228,0.552,1.228,1.229  C37.448,43.481,36.897,44.032,36.221,44.032z M36.413,40.596c-0.064-0.006-0.127-0.021-0.191-0.021c-1.057,0-1.939,0.74-2.166,1.729  H13.947c-0.228-0.988-1.11-1.729-2.166-1.729c-0.066,0-0.128,0.015-0.192,0.021L5.372,21.463c0.646-0.391,1.084-1.093,1.084-1.902  c0-0.309-0.064-0.604-0.178-0.872l16.27-11.82c0.391,0.34,0.895,0.554,1.453,0.554c0.558,0,1.063-0.213,1.455-0.554l16.268,11.82  c-0.115,0.268-0.178,0.563-0.178,0.872c0,0.809,0.438,1.512,1.084,1.902L36.413,40.596z M43.772,20.789  c-0.677,0-1.228-0.551-1.228-1.228c0-0.677,0.551-1.228,1.228-1.228c0.678,0,1.229,0.551,1.229,1.228  C45.001,20.238,44.45,20.789,43.772,20.789z"
     id="path602" /></svg>