<?xml version="1.0" encoding="utf-8"?>
<!-- Generator: Adobe Illustrator 16.0.3, SVG Export Plug-In . SVG Version: 6.00 Build 0)  -->
<!DOCTYPE svg PUBLIC "-//W3C//DTD SVG 1.1//EN" "http://www.w3.org/Graphics/SVG/1.1/DTD/svg11.dtd">
<svg version="1.1" id="Calque_1" xmlns="http://www.w3.org/2000/svg" xmlns:xlink="http://www.w3.org/1999/xlink" x="0px" y="0px"
	 width="24.167px" height="24.833px" viewBox="27.833 28.833 24.167 24.833" enable-background="new 27.833 28.833 24.167 24.833"
	 xml:space="preserve">
<g>
	<path fill="#1F3869" d="M46.992,50.429c-1.987,1.554-4.439,2.394-6.962,2.387c-2.206,0.001-4.366-0.634-6.219-1.83l0.057,0.318
		c0.109,0.616-0.301,1.204-0.917,1.313s-1.204-0.301-1.313-0.917l0,0l-0.624-3.511c-0.109-0.616,0.301-1.204,0.917-1.313
		c0.083-0.015,0.167-0.021,0.25-0.017l3.563,0.163c0.625,0.028,1.108,0.558,1.08,1.183c-0.029,0.625-0.559,1.108-1.184,1.08
		l-0.285-0.014c4.285,2.577,9.847,1.191,12.423-3.094c1.337-2.225,1.655-4.915,0.875-7.39c-0.182-0.599,0.157-1.231,0.756-1.412
		c0.59-0.178,1.213,0.147,1.404,0.732C52.213,42.61,50.693,47.51,46.992,50.429z M31.354,44.229
		c-1.502-4.769,1.145-9.854,5.914-11.356c2.474-0.78,5.164-0.461,7.387,0.876l-0.286-0.013c-0.625-0.028-1.154,0.455-1.183,1.08
		c-0.029,0.625,0.454,1.155,1.079,1.184l0,0l3.563,0.163c0.019,0,0.035,0.001,0.052,0.001c0.626,0,1.133-0.507,1.133-1.132
		c0-0.067-0.006-0.133-0.018-0.199l-0.623-3.511c-0.109-0.616-0.697-1.027-1.313-0.917c-0.615,0.109-1.026,0.697-0.917,1.313
		l0.057,0.318c-5.232-3.425-12.251-1.959-15.677,3.273c-1.858,2.84-2.346,6.363-1.328,9.601c0.193,0.592,0.824,0.921,1.42,0.74
		C31.209,45.462,31.541,44.826,31.354,44.229L31.354,44.229z"/>
</g>
</svg>
